<?xml version="1.0" standalone="no"?>
<!DOCTYPE svg PUBLIC "-//W3C//DTD SVG 20010904//EN"
 "http://www.w3.org/TR/2001/REC-SVG-20010904/DTD/svg10.dtd">
<svg version="1.0" xmlns="http://www.w3.org/2000/svg"
 width="840.000000pt" height="859.000000pt" viewBox="0 0 840.000000 859.000000"
 preserveAspectRatio="xMidYMid meet">

<g transform="translate(0.000000,859.000000) scale(0.100000,-0.100000)"
fill="#000000" stroke="none">
<path d="M650 7835 c0 -10 -10 -15 -27 -15 -28 0 -73 -37 -73 -59 0 -6 -7 -11
-15 -11 -8 0 -15 -7 -15 -15 0 -8 -6 -15 -14 -15 -9 0 -16 -20 -21 -65 -3 -36
-11 -65 -16 -65 -5 0 -9 -45 -9 -100 0 -60 4 -100 10 -100 6 0 10 -40 10 -100
0 -60 -4 -100 -10 -100 -6 0 -10 -40 -10 -100 0 -60 4 -100 10 -100 6 0 10
-40 10 -100 0 -60 -4 -100 -10 -100 -6 0 -10 -40 -10 -100 0 -60 4 -100 10
-100 6 0 10 -40 10 -100 0 -60 -4 -100 -10 -100 -6 0 -10 -40 -10 -100 0 -60
4 -100 10 -100 6 0 10 -40 10 -100 0 -60 -4 -100 -10 -100 -6 0 -10 -40 -10
-100 0 -60 4 -100 10 -100 6 0 10 -40 10 -100 0 -60 -4 -100 -10 -100 -6 0
-10 -40 -10 -100 0 -60 4 -100 10 -100 6 0 10 -40 10 -100 0 -60 -4 -100 -10
-100 -6 0 -10 -40 -10 -100 0 -60 4 -100 10 -100 6 0 10 -40 10 -100 0 -60 -4
-100 -10 -100 -6 0 -10 -40 -10 -100 0 -60 4 -100 10 -100 6 0 10 -40 10 -100
0 -60 -4 -100 -10 -100 -6 0 -10 -40 -10 -100 0 -60 4 -100 10 -100 6 0 10
-40 10 -100 0 -60 -4 -100 -10 -100 -6 0 -10 -40 -10 -100 0 -60 4 -100 10
-100 6 0 10 -40 10 -100 0 -60 -4 -100 -10 -100 -6 0 -10 -40 -10 -100 0 -60
4 -100 10 -100 6 0 10 -40 10 -100 0 -60 -4 -100 -10 -100 -6 0 -10 -40 -10
-100 0 -60 4 -100 10 -100 6 0 10 -40 10 -100 0 -60 -4 -100 -10 -100 -6 0
-10 -40 -10 -100 0 -60 4 -100 10 -100 6 0 10 -40 10 -100 0 -60 -4 -100 -10
-100 -6 0 -10 -40 -10 -100 0 -60 4 -100 10 -100 6 0 10 -31 10 -74 0 -104 10
-166 26 -166 8 0 14 -9 14 -20 0 -11 7 -20 15 -20 8 0 15 -7 15 -15 0 -8 9
-15 20 -15 11 0 20 -7 20 -15 0 -10 10 -15 30 -15 20 0 30 -5 30 -15 0 -8 9
-15 20 -15 11 0 28 -9 37 -20 10 -11 30 -20 45 -20 18 0 28 -5 28 -15 0 -10
10 -15 30 -15 20 0 30 -5 30 -15 0 -8 9 -15 20 -15 11 0 20 -6 20 -14 0 -8 14
-17 30 -21 17 -4 30 -11 30 -15 0 -5 16 -12 35 -16 20 -3 35 -12 35 -20 0 -8
9 -14 20 -14 11 0 20 -7 20 -15 0 -10 10 -15 30 -15 18 0 37 -8 47 -20 10 -11
23 -20 29 -20 7 0 14 -7 18 -15 3 -8 17 -15 31 -15 16 0 25 -6 25 -15 0 -10
11 -15 35 -15 24 0 35 -5 35 -15 0 -8 9 -15 20 -15 11 0 20 -6 20 -14 0 -8 14
-17 30 -21 17 -4 30 -13 30 -21 0 -9 11 -14 30 -14 20 0 30 -5 30 -15 0 -10
11 -15 35 -15 24 0 35 -5 35 -15 0 -8 7 -15 15 -15 9 0 18 -6 21 -14 3 -8 19
-18 35 -21 16 -4 29 -13 29 -21 0 -9 11 -14 30 -14 20 0 30 -5 30 -15 0 -10
11 -15 35 -15 24 0 35 -5 35 -14 0 -8 14 -17 30 -21 17 -4 30 -13 30 -21 0 -8
9 -14 20 -14 11 0 20 -7 20 -15 0 -10 10 -15 30 -15 20 0 30 -5 30 -15 0 -10
10 -15 30 -15 18 0 33 -6 36 -15 4 -8 12 -15 20 -15 8 0 14 -6 14 -14 0 -8 14
-18 32 -21 17 -4 38 -14 46 -21 7 -8 22 -14 33 -14 10 0 19 -7 19 -15 0 -10
10 -15 30 -15 20 0 30 -5 30 -15 0 -8 9 -15 20 -15 11 0 20 -7 20 -15 0 -8 14
-17 35 -21 20 -3 35 -12 35 -20 0 -9 11 -14 30 -14 20 0 30 -5 30 -15 0 -10
10 -15 30 -15 20 0 30 -5 30 -15 0 -8 14 -17 35 -21 20 -3 35 -12 35 -20 0 -8
9 -14 20 -14 11 0 20 -7 20 -15 0 -10 10 -15 30 -15 20 0 30 -5 30 -15 0 -10
10 -15 30 -15 20 0 30 -5 30 -15 0 -8 14 -17 35 -21 20 -3 35 -12 35 -20 0 -9
11 -14 30 -14 20 0 30 -5 30 -15 0 -8 7 -15 16 -15 8 0 22 -7 30 -15 21 -20
141 -20 168 0 11 8 28 15 38 15 10 0 18 6 18 14 0 9 12 16 28 18 21 2 28 9 30
31 2 15 9 27 17 27 7 0 16 16 19 35 4 19 11 35 16 35 6 0 11 203 12 523 l3
522 1093 3 c961 2 1092 4 1092 17 0 10 10 15 30 15 20 0 30 5 30 15 0 8 9 15
20 15 11 0 20 7 20 15 0 8 7 15 15 15 8 0 15 9 15 20 0 11 7 20 15 20 10 0 15
10 15 30 0 18 6 33 15 36 13 5 15 112 15 880 l0 874 -260 0 -260 0 0 -715 0
-715 -930 0 -930 0 0 2049 c0 1812 -2 2050 -15 2055 -9 3 -15 18 -15 36 0 20
-5 30 -15 30 -8 0 -15 7 -15 15 0 8 -6 15 -13 15 -7 0 -20 9 -30 20 -9 11 -26
20 -37 20 -11 0 -20 7 -20 15 0 10 -10 15 -30 15 -19 0 -30 5 -30 14 0 8 -15
17 -35 20 -21 4 -35 13 -35 21 0 8 -7 15 -16 15 -8 0 -22 7 -30 15 -9 8 -24
15 -35 15 -10 0 -19 7 -19 15 0 10 -10 15 -30 15 -19 0 -30 5 -30 14 0 8 -15
17 -35 20 -21 4 -35 13 -35 21 0 8 -7 15 -16 15 -8 0 -22 7 -30 15 -9 8 -29
15 -45 15 -19 0 -29 5 -29 15 0 8 -9 15 -20 15 -11 0 -20 6 -20 14 0 8 -15 17
-35 20 -21 4 -35 13 -35 21 0 8 -6 15 -14 15 -8 0 -16 7 -20 15 -3 8 -17 15
-31 15 -15 0 -33 7 -41 15 -9 8 -24 15 -35 15 -10 0 -19 6 -19 14 0 8 -13 17
-29 21 -16 3 -32 13 -35 21 -3 8 -19 14 -36 14 -20 0 -30 5 -30 15 0 8 -9 15
-20 15 -11 0 -20 7 -20 15 0 9 -9 15 -25 15 -14 0 -28 6 -31 14 -3 8 -19 18
-35 21 -16 4 -29 13 -29 21 0 9 -11 14 -35 14 -24 0 -35 5 -35 15 0 8 -7 15
-15 15 -9 0 -18 7 -21 15 -4 8 -17 15 -30 15 -14 0 -27 6 -30 14 -3 8 -19 18
-35 21 -16 4 -29 13 -29 21 0 12 230 14 1645 14 l1645 0 0 -915 0 -915 260 0
260 0 0 1074 c0 945 -2 1075 -15 1080 -9 3 -15 18 -15 36 0 20 -5 30 -15 30
-8 0 -15 9 -15 20 0 11 -7 20 -15 20 -8 0 -15 7 -15 15 0 8 -6 15 -14 15 -8 0
-16 7 -20 15 -3 9 -18 15 -36 15 -20 0 -30 5 -30 15 0 13 -269 15 -2365 15
-2096 0 -2365 -2 -2365 -15z"/>
<path d="M6218 5823 c-10 -2 -18 -9 -18 -14 0 -5 -9 -9 -20 -9 -11 0 -20 -7
-20 -15 0 -8 -6 -15 -14 -15 -8 0 -17 -15 -20 -35 -4 -19 -11 -35 -16 -35 -6
0 -10 -130 -10 -337 0 -186 -3 -348 -6 -360 l-6 -23 -749 0 c-659 0 -749 -2
-749 -15 0 -10 -10 -15 -30 -15 -19 0 -30 -5 -30 -14 0 -8 -13 -17 -30 -21
-16 -4 -30 -13 -30 -21 0 -8 -6 -14 -14 -14 -8 0 -18 -14 -21 -31 -5 -20 -10
-27 -15 -19 -9 15 -20 -10 -20 -46 0 -15 -6 -24 -15 -24 -13 0 -15 -22 -15
-135 0 -111 3 -135 14 -135 9 0 16 -12 18 -32 2 -20 8 -32 16 -30 6 1 12 -7
12 -18 0 -11 7 -20 15 -20 8 0 15 -7 15 -15 0 -8 9 -15 20 -15 11 0 20 -7 20
-15 0 -8 7 -15 15 -15 8 0 15 -6 15 -14 0 -8 15 -17 34 -20 19 -4 37 -12 40
-19 3 -9 7 -8 15 3 9 13 11 13 11 -2 0 -17 42 -18 735 -18 l735 0 0 -370 c0
-322 2 -370 15 -370 8 0 15 -9 15 -20 0 -11 7 -20 15 -20 8 0 15 -6 15 -14 0
-17 81 -27 150 -19 33 4 50 11 50 19 0 8 7 14 15 14 8 0 15 7 15 15 0 8 9 15
20 15 11 0 20 6 20 14 0 8 14 17 30 21 17 4 30 13 30 21 0 8 7 14 15 14 8 0
15 7 15 15 0 10 10 15 30 15 20 0 30 5 30 15 0 8 9 15 20 15 11 0 20 6 20 14
0 8 14 17 30 21 17 4 30 13 30 21 0 8 7 14 15 14 8 0 15 7 15 15 0 8 9 15 20
15 11 0 20 6 20 14 0 8 14 18 31 21 21 5 27 10 19 15 -8 5 -2 10 19 15 17 3
31 13 31 21 0 8 7 14 15 14 8 0 15 7 15 15 0 10 10 15 30 15 20 0 30 5 30 15
0 8 7 15 15 15 9 0 18 6 21 14 3 8 19 18 35 21 16 4 29 13 29 21 0 8 7 14 15
14 8 0 15 7 15 15 0 8 9 15 20 15 11 0 20 6 20 14 0 8 14 17 30 21 17 4 30 13
30 21 0 8 9 14 20 14 11 0 20 7 20 15 0 8 7 15 15 15 8 0 15 7 15 15 0 10 10
15 29 15 20 0 30 6 34 20 3 11 12 20 21 20 9 0 16 7 16 15 0 10 10 15 30 15
20 0 30 5 30 15 0 8 7 15 15 15 8 0 15 7 15 15 0 8 9 15 20 15 11 0 20 7 20
15 0 8 7 15 15 15 8 0 15 6 15 14 0 8 14 17 30 21 17 4 30 13 30 21 0 8 9 14
20 14 11 0 20 7 20 15 0 9 9 15 25 15 14 0 29 8 35 20 6 11 17 20 25 20 8 0
15 7 15 15 0 8 7 15 15 15 8 0 15 7 15 15 0 10 10 15 30 15 20 0 30 5 30 15 0
9 6 18 14 21 8 3 18 19 21 35 4 16 11 29 16 29 5 0 9 14 9 30 0 17 -4 30 -10
30 -5 0 -10 16 -10 35 0 28 -4 35 -20 35 -11 0 -20 7 -20 15 0 8 -7 15 -15 15
-8 0 -15 6 -15 14 0 8 -13 17 -30 21 -16 4 -30 13 -30 21 0 8 -9 14 -20 14
-11 0 -20 7 -20 15 0 8 -7 15 -15 15 -8 0 -15 7 -15 15 0 8 -7 15 -15 15 -9 0
-18 6 -21 14 -3 8 -19 18 -35 21 -16 4 -29 13 -29 21 0 8 -7 14 -15 14 -8 0
-15 7 -15 15 0 10 -10 15 -30 15 -20 0 -30 5 -30 15 0 8 -9 15 -20 15 -11 0
-20 7 -20 15 0 8 -6 15 -13 15 -7 0 -20 9 -30 20 -9 11 -26 20 -37 20 -11 0
-20 7 -20 15 0 8 -7 15 -15 15 -8 0 -15 6 -15 14 0 8 -13 17 -29 21 -16 3 -32
13 -35 21 -3 8 -12 14 -21 14 -8 0 -15 7 -15 15 0 8 -7 15 -15 15 -8 0 -15 7
-15 15 0 10 -10 15 -30 15 -20 0 -30 5 -30 15 0 8 -9 15 -20 15 -11 0 -20 6
-20 14 0 8 -13 17 -30 21 -16 4 -30 13 -30 21 0 8 -7 14 -15 14 -8 0 -15 7
-15 15 0 8 -9 15 -20 15 -11 0 -20 7 -20 15 0 8 -7 15 -15 15 -8 0 -15 7 -15
15 0 8 -14 17 -35 21 -20 3 -35 12 -35 20 0 8 -7 14 -15 14 -8 0 -15 7 -15 15
0 10 -10 15 -30 15 -20 0 -30 5 -30 15 0 8 -7 15 -16 15 -9 0 -18 9 -21 20 -3
11 -12 20 -19 20 -8 0 -14 4 -14 9 0 5 -13 12 -30 16 -16 4 -30 13 -30 21 0 8
-9 14 -20 14 -11 0 -20 6 -20 14 0 8 -13 17 -30 21 -16 4 -30 13 -30 21 0 8
-7 14 -15 14 -8 0 -15 7 -15 15 0 8 -9 15 -20 15 -11 0 -20 6 -20 14 0 8 -13
17 -29 21 -16 3 -32 13 -35 21 -3 8 -16 14 -30 14 -13 0 -26 7 -30 15 -5 15
-40 18 -78 8z"/>
</g>
</svg>
